<?xml version="1.0" encoding="UTF-8" standalone="no"?>
<!DOCTYPE svg PUBLIC "-//W3C//DTD SVG 1.1//EN"
 "http://www.w3.org/Graphics/SVG/1.1/DTD/svg11.dtd">
<!-- Generated by graphviz version 2.40.1 (20161225.0304)
 -->
<!-- Title: dependencies Pages: 1 -->
<svg width="1665pt" height="284pt"
 viewBox="0.00 0.00 1665.00 284.00" xmlns="http://www.w3.org/2000/svg" xmlns:xlink="http://www.w3.org/1999/xlink">
<g id="graph0" class="graph" transform="scale(1 1) rotate(0) translate(4 280)">
<title>dependencies</title>
<polygon fill="#ffffff" stroke="transparent" points="-4,4 -4,-280 1661,-280 1661,4 -4,4"/>
<text text-anchor="start" x="807.5091" y="-42.4" font-family="sans-serif" font-weight="bold" font-size="14.00" fill="#000000">Legend</text>
<polygon fill="#ffffb3" stroke="transparent" points="594.5,-10 594.5,-30 614.5,-30 614.5,-10 594.5,-10"/>
<text text-anchor="start" x="618.129" y="-15.4" font-family="sans-serif" font-size="14.00" fill="#000000"> &#160;Declarations</text>
<polygon fill="#8dd3c7" stroke="transparent" points="707.5,-10 707.5,-30 727.5,-30 727.5,-10 707.5,-10"/>
<text text-anchor="start" x="731.2251" y="-15.4" font-family="sans-serif" font-size="14.00" fill="#000000"> &#160;Module</text>
<polygon fill="#80b1d3" stroke="transparent" points="793.5,-10 793.5,-30 813.5,-30 813.5,-10 793.5,-10"/>
<text text-anchor="start" x="817.2812" y="-15.4" font-family="sans-serif" font-size="14.00" fill="#000000"> &#160;Bootstrap</text>
<polygon fill="#fdb462" stroke="transparent" points="890.5,-10 890.5,-30 910.5,-30 910.5,-10 890.5,-10"/>
<text text-anchor="start" x="914.1732" y="-15.4" font-family="sans-serif" font-size="14.00" fill="#000000"> &#160;Providers</text>
<polygon fill="#fb8072" stroke="transparent" points="986.5,-10 986.5,-30 1006.5,-30 1006.5,-10 986.5,-10"/>
<text text-anchor="start" x="1010.2258" y="-15.4" font-family="sans-serif" font-size="14.00" fill="#000000"> &#160;Exports</text>
<g id="clust1" class="cluster">
<title>cluster_AppModule</title>
<polygon fill="none" stroke="#000000" stroke-dasharray="1,5" points="8,-70 8,-268 1649,-268 1649,-70 8,-70"/>
</g>
<g id="clust2" class="cluster">
<title>cluster_AppModule_declarations</title>
<polygon fill="none" stroke="#000000" points="442,-78 442,-130 1641,-130 1641,-78 442,-78"/>
</g>
<g id="clust12" class="cluster">
<title>cluster_AppModule_imports</title>
<polygon fill="none" stroke="#000000" points="290,-78 290,-130 434,-130 434,-78 290,-78"/>
</g>
<g id="clust14" class="cluster">
<title>cluster_AppModule_bootstrap</title>
<polygon fill="none" stroke="#000000" points="788,-208 788,-260 912,-260 912,-208 788,-208"/>
</g>
<g id="clust15" class="cluster">
<title>cluster_AppModule_providers</title>
<polygon fill="none" stroke="#000000" points="16,-78 16,-130 282,-130 282,-78 16,-78"/>
</g>
<!-- AppComponent -->
<g id="node1" class="node">
<title>AppComponent</title>
<polygon fill="#ffffb3" stroke="#000000" points="1632.9399,-122 1527.0601,-122 1527.0601,-86 1632.9399,-86 1632.9399,-122"/>
<text text-anchor="middle" x="1580" y="-99.8" font-family="Times,serif" font-size="14.00" fill="#000000">AppComponent</text>
</g>
<!-- AppModule -->
<g id="node10" class="node">
<title>AppModule</title>
<polygon fill="#8dd3c7" stroke="#000000" points="891.6571,-187 888.6571,-191 867.6571,-191 864.6571,-187 808.3429,-187 808.3429,-151 891.6571,-151 891.6571,-187"/>
<text text-anchor="middle" x="850" y="-164.8" font-family="Times,serif" font-size="14.00" fill="#000000">AppModule</text>
</g>
<!-- AppComponent&#45;&gt;AppModule -->
<g id="edge1" class="edge">
<title>AppComponent&#45;&gt;AppModule</title>
<path fill="none" stroke="#000000" d="M1580,-122.2479C1580,-145.0179 1580,-181 1580,-181 1580,-181 901.8699,-181 901.8699,-181"/>
<polygon fill="#000000" stroke="#000000" points="901.8699,-177.5001 891.8699,-181 901.8699,-184.5001 901.8699,-177.5001"/>
</g>
<!-- BoardComponent -->
<g id="node2" class="node">
<title>BoardComponent</title>
<polygon fill="#ffffb3" stroke="#000000" points="1509.5451,-122 1394.4549,-122 1394.4549,-86 1509.5451,-86 1509.5451,-122"/>
<text text-anchor="middle" x="1452" y="-99.8" font-family="Times,serif" font-size="14.00" fill="#000000">BoardComponent</text>
</g>
<!-- BoardComponent&#45;&gt;AppModule -->
<g id="edge2" class="edge">
<title>BoardComponent&#45;&gt;AppModule</title>
<path fill="none" stroke="#000000" d="M1452,-122.2843C1452,-143.3211 1452,-175 1452,-175 1452,-175 901.8535,-175 901.8535,-175"/>
<polygon fill="#000000" stroke="#000000" points="901.8536,-171.5001 891.8535,-175 901.8535,-178.5001 901.8536,-171.5001"/>
</g>
<!-- HomeComponent -->
<g id="node3" class="node">
<title>HomeComponent</title>
<polygon fill="#ffffb3" stroke="#000000" points="1375.5451,-122 1260.4549,-122 1260.4549,-86 1375.5451,-86 1375.5451,-122"/>
<text text-anchor="middle" x="1318" y="-99.8" font-family="Times,serif" font-size="14.00" fill="#000000">HomeComponent</text>
</g>
<!-- HomeComponent&#45;&gt;AppModule -->
<g id="edge3" class="edge">
<title>HomeComponent&#45;&gt;AppModule</title>
<path fill="none" stroke="#000000" d="M1318,-122.1061C1318,-141.3391 1318,-169 1318,-169 1318,-169 901.9437,-169 901.9437,-169"/>
<polygon fill="#000000" stroke="#000000" points="901.9438,-165.5001 891.9437,-169 901.9437,-172.5001 901.9438,-165.5001"/>
</g>
<!-- LoginComponent -->
<g id="node4" class="node">
<title>LoginComponent</title>
<polygon fill="#ffffb3" stroke="#000000" points="1242.2758,-122 1127.7242,-122 1127.7242,-86 1242.2758,-86 1242.2758,-122"/>
<text text-anchor="middle" x="1185" y="-99.8" font-family="Times,serif" font-size="14.00" fill="#000000">LoginComponent</text>
</g>
<!-- LoginComponent&#45;&gt;AppModule -->
<g id="edge4" class="edge">
<title>LoginComponent&#45;&gt;AppModule</title>
<path fill="none" stroke="#000000" d="M1185,-122.0225C1185,-139.3734 1185,-163 1185,-163 1185,-163 901.7506,-163 901.7506,-163"/>
<polygon fill="#000000" stroke="#000000" points="901.7507,-159.5001 891.7506,-163 901.7506,-166.5001 901.7507,-159.5001"/>
</g>
<!-- NavbarComponent -->
<g id="node5" class="node">
<title>NavbarComponent</title>
<polygon fill="#ffffb3" stroke="#000000" points="1109.0297,-122 986.9703,-122 986.9703,-86 1109.0297,-86 1109.0297,-122"/>
<text text-anchor="middle" x="1048" y="-99.8" font-family="Times,serif" font-size="14.00" fill="#000000">NavbarComponent</text>
</g>
<!-- NavbarComponent&#45;&gt;AppModule -->
<g id="edge5" class="edge">
<title>NavbarComponent&#45;&gt;AppModule</title>
<path fill="none" stroke="#000000" d="M1048,-122.2396C1048,-137.5706 1048,-157 1048,-157 1048,-157 901.9907,-157 901.9907,-157"/>
<polygon fill="#000000" stroke="#000000" points="901.9907,-153.5001 891.9907,-157 901.9907,-160.5001 901.9907,-153.5001"/>
</g>
<!-- PostComponent -->
<g id="node6" class="node">
<title>PostComponent</title>
<polygon fill="#ffffb3" stroke="#000000" points="968.9512,-122 863.0488,-122 863.0488,-86 968.9512,-86 968.9512,-122"/>
<text text-anchor="middle" x="916" y="-99.8" font-family="Times,serif" font-size="14.00" fill="#000000">PostComponent</text>
</g>
<!-- PostComponent&#45;&gt;AppModule -->
<g id="edge6" class="edge">
<title>PostComponent&#45;&gt;AppModule</title>
<path fill="none" stroke="#000000" d="M877.5516,-122.1061C877.5516,-122.1061 877.5516,-140.991 877.5516,-140.991"/>
<polygon fill="#000000" stroke="#000000" points="874.0516,-140.9909 877.5516,-150.991 881.0516,-140.991 874.0516,-140.9909"/>
</g>
<!-- PublishComponent -->
<g id="node7" class="node">
<title>PublishComponent</title>
<polygon fill="#ffffb3" stroke="#000000" points="845.8413,-122 722.1587,-122 722.1587,-86 845.8413,-86 845.8413,-122"/>
<text text-anchor="middle" x="784" y="-99.8" font-family="Times,serif" font-size="14.00" fill="#000000">PublishComponent</text>
</g>
<!-- PublishComponent&#45;&gt;AppModule -->
<g id="edge7" class="edge">
<title>PublishComponent&#45;&gt;AppModule</title>
<path fill="none" stroke="#000000" d="M826.9211,-122.1061C826.9211,-122.1061 826.9211,-140.991 826.9211,-140.991"/>
<polygon fill="#000000" stroke="#000000" points="823.4212,-140.9909 826.9211,-150.991 830.4212,-140.991 823.4212,-140.9909"/>
</g>
<!-- RegisterComponent -->
<g id="node8" class="node">
<title>RegisterComponent</title>
<polygon fill="#ffffb3" stroke="#000000" points="703.9846,-122 576.0154,-122 576.0154,-86 703.9846,-86 703.9846,-122"/>
<text text-anchor="middle" x="640" y="-99.8" font-family="Times,serif" font-size="14.00" fill="#000000">RegisterComponent</text>
</g>
<!-- RegisterComponent&#45;&gt;AppModule -->
<g id="edge8" class="edge">
<title>RegisterComponent&#45;&gt;AppModule</title>
<path fill="none" stroke="#000000" d="M640,-122.2396C640,-137.5706 640,-157 640,-157 640,-157 798.2597,-157 798.2597,-157"/>
<polygon fill="#000000" stroke="#000000" points="798.2597,-160.5001 808.2597,-157 798.2596,-153.5001 798.2597,-160.5001"/>
</g>
<!-- UserComponent -->
<g id="node9" class="node">
<title>UserComponent</title>
<polygon fill="#ffffb3" stroke="#000000" points="557.7591,-122 450.2409,-122 450.2409,-86 557.7591,-86 557.7591,-122"/>
<text text-anchor="middle" x="504" y="-99.8" font-family="Times,serif" font-size="14.00" fill="#000000">UserComponent</text>
</g>
<!-- UserComponent&#45;&gt;AppModule -->
<g id="edge9" class="edge">
<title>UserComponent&#45;&gt;AppModule</title>
<path fill="none" stroke="#000000" d="M504,-122.0225C504,-139.3734 504,-163 504,-163 504,-163 798.2643,-163 798.2643,-163"/>
<polygon fill="#000000" stroke="#000000" points="798.2644,-166.5001 808.2643,-163 798.2643,-159.5001 798.2644,-166.5001"/>
</g>
<!-- AppComponent  -->
<g id="node12" class="node">
<title>AppComponent </title>
<polygon fill="#80b1d3" stroke="#000000" points="904.439,-252 795.561,-252 795.561,-216 904.439,-216 904.439,-252"/>
<text text-anchor="middle" x="850" y="-229.8" font-family="Times,serif" font-size="14.00" fill="#000000">AppComponent </text>
</g>
<!-- AppModule&#45;&gt;AppComponent  -->
<g id="edge11" class="edge">
<title>AppModule&#45;&gt;AppComponent </title>
<path fill="none" stroke="#000000" stroke-dasharray="1,5" d="M850,-187.1061C850,-187.1061 850,-205.991 850,-205.991"/>
<polygon fill="#000000" stroke="#000000" points="846.5001,-205.9909 850,-215.991 853.5001,-205.991 846.5001,-205.9909"/>
</g>
<!-- AppRoutingModule -->
<g id="node11" class="node">
<title>AppRoutingModule</title>
<polygon fill="#8dd3c7" stroke="#000000" points="426.2744,-122 423.2744,-126 402.2744,-126 399.2744,-122 297.7256,-122 297.7256,-86 426.2744,-86 426.2744,-122"/>
<text text-anchor="middle" x="362" y="-99.8" font-family="Times,serif" font-size="14.00" fill="#000000">AppRoutingModule</text>
</g>
<!-- AppRoutingModule&#45;&gt;AppModule -->
<g id="edge10" class="edge">
<title>AppRoutingModule&#45;&gt;AppModule</title>
<path fill="none" stroke="#000000" d="M362,-122.1061C362,-141.3391 362,-169 362,-169 362,-169 797.971,-169 797.971,-169"/>
<polygon fill="#000000" stroke="#000000" points="797.9711,-172.5001 807.971,-169 797.971,-165.5001 797.9711,-172.5001"/>
</g>
<!-- AppService -->
<g id="node13" class="node">
<title>AppService</title>
<ellipse fill="#fdb462" stroke="#000000" cx="217" cy="-104" rx="56.7406" ry="18"/>
<text text-anchor="middle" x="217" y="-99.8" font-family="Times,serif" font-size="14.00" fill="#000000">AppService</text>
</g>
<!-- AppService&#45;&gt;AppModule -->
<g id="edge12" class="edge">
<title>AppService&#45;&gt;AppModule</title>
<path fill="none" stroke="#000000" d="M217,-122.2843C217,-143.3211 217,-175 217,-175 217,-175 797.9769,-175 797.9769,-175"/>
<polygon fill="#000000" stroke="#000000" points="797.9769,-178.5001 807.9769,-175 797.9768,-171.5001 797.9769,-178.5001"/>
</g>
<!-- AuthService -->
<g id="node14" class="node">
<title>AuthService</title>
<ellipse fill="#fdb462" stroke="#000000" cx="83" cy="-104" rx="59.1083" ry="18"/>
<text text-anchor="middle" x="83" y="-99.8" font-family="Times,serif" font-size="14.00" fill="#000000">AuthService</text>
</g>
<!-- AuthService&#45;&gt;AppModule -->
<g id="edge13" class="edge">
<title>AuthService&#45;&gt;AppModule</title>
<path fill="none" stroke="#000000" d="M83,-122.2479C83,-145.0179 83,-181 83,-181 83,-181 798.2181,-181 798.2181,-181"/>
<polygon fill="#000000" stroke="#000000" points="798.2181,-184.5001 808.2181,-181 798.218,-177.5001 798.2181,-184.5001"/>
</g>
</g>
</svg>
